<svg width="12" height="12" viewBox="0 0 12 12" fill="none" xmlns="http://www.w3.org/2000/svg">
<path d="M5.499 0.790009C5.65126 0.701869 5.82407 0.655457 6 0.655457C6.17593 0.655457 6.34874 0.701869 6.501 0.790009L10.251 2.96101C10.4028 3.04886 10.5287 3.17507 10.6163 3.32698C10.7039 3.47889 10.75 3.65116 10.75 3.82651V8.17351C10.7499 8.34877 10.7038 8.52094 10.6162 8.67276C10.5286 8.82457 10.4027 8.9507 10.251 9.03851L6.501 11.21C6.34874 11.2981 6.17593 11.3446 6 11.3446C5.82407 11.3446 5.65126 11.2981 5.499 11.21L1.749 9.03901C1.59724 8.95116 1.47126 8.82495 1.38367 8.67304C1.29609 8.52113 1.24999 8.34886 1.25 8.17351V3.82651C1.25008 3.65124 1.29622 3.47908 1.3838 3.32726C1.47138 3.17545 1.59732 3.04932 1.749 2.96151L5.499 0.790009ZM2.25 3.82651V3.82901L5.501 5.71101C5.65276 5.79886 5.77874 5.92507 5.86633 6.07698C5.95391 6.22889 6.00001 6.40116 6 6.57651V10.3445L9.75 8.17351V3.82651L6 1.65551L2.25 3.82651ZM3.066 6.15001C3.066 5.87401 2.872 5.53801 2.633 5.40001C2.394 5.26201 2.2 5.37401 2.2 5.65001C2.2 5.92601 2.394 6.26201 2.633 6.40001C2.872 6.53801 3.066 6.42601 3.066 6.15001ZM4.3645 9.39901C4.6035 9.53701 4.7975 9.42551 4.7975 9.14901C4.7975 8.87301 4.6035 8.53701 4.3645 8.39901C4.1255 8.26101 3.9315 8.37301 3.9315 8.64901C3.9315 8.92501 4.1255 9.26101 4.3645 9.39901ZM2.633 8.40001C2.872 8.53801 3.066 8.42601 3.066 8.15001C3.066 7.87401 2.872 7.53801 2.633 7.40001C2.394 7.26201 2.2 7.37401 2.2 7.65001C2.2 7.92601 2.394 8.26201 2.633 8.40001ZM4.3645 7.40001C4.6035 7.53851 4.7975 7.42651 4.797 7.15001C4.797 6.87401 4.6035 6.53851 4.364 6.40001C4.125 6.26201 3.931 6.37401 3.931 6.65001C3.931 6.92651 4.125 7.26201 4.3645 7.40001ZM7.449 4.00001C7.688 3.86201 7.688 3.63801 7.449 3.50001C7.21 3.36201 6.822 3.36201 6.583 3.50001C6.3435 3.63801 6.3435 3.86201 6.583 4.00001C6.822 4.13801 7.21 4.13801 7.449 4.00001ZM5.049 3.50001C5.288 3.63801 5.288 3.86201 5.049 4.00001C4.81 4.13801 4.422 4.13801 4.183 4.00001C3.944 3.86201 3.944 3.63801 4.183 3.50001C4.422 3.36201 4.81 3.36201 5.049 3.50001ZM7.9975 7.67501C8.2965 7.50201 8.539 7.08251 8.539 6.73751C8.539 6.39251 8.2965 6.25251 7.998 6.42501C7.6995 6.59751 7.4565 7.01701 7.4565 7.36251C7.4565 7.70751 7.699 7.84751 7.9975 7.67501Z" fill="#020617"/>
<path fill-rule="evenodd" clip-rule="evenodd" d="M2.25 3.82651V3.82901L5.501 5.71101C5.65276 5.79886 5.77874 5.92507 5.86633 6.07698C5.95391 6.22889 6.00001 6.40116 6 6.57651V10.3445L9.75 8.17351V3.82651L6 1.65551L2.25 3.82651ZM7.449 3.50001C7.688 3.63801 7.688 3.86201 7.449 4.00001C7.21 4.13801 6.822 4.13801 6.583 4.00001C6.3435 3.86201 6.3435 3.63801 6.583 3.50001C6.822 3.36201 7.21 3.36201 7.449 3.50001ZM5.049 4.00001C5.288 3.86201 5.288 3.63801 5.049 3.50001C4.81 3.36201 4.422 3.36201 4.183 3.50001C3.944 3.63801 3.944 3.86201 4.183 4.00001C4.422 4.13801 4.81 4.13801 5.049 4.00001ZM8.539 6.73751C8.539 7.08251 8.2965 7.50201 7.9975 7.67501C7.699 7.84751 7.4565 7.70751 7.4565 7.36251C7.4565 7.01701 7.6995 6.59751 7.998 6.42501C8.2965 6.25251 8.539 6.39251 8.539 6.73751Z" fill="#F8FAFC"/>
<path d="M4.3645 7.40001C4.6035 7.53851 4.7975 7.42651 4.797 7.15001C4.797 6.87401 4.6035 6.53851 4.364 6.40001C4.125 6.26201 3.931 6.37401 3.931 6.65001C3.931 6.92651 4.125 7.26201 4.3645 7.40001Z" fill="#F8FAFC"/>
<path d="M3.066 6.15001C3.066 5.87401 2.872 5.53801 2.633 5.40001C2.394 5.26201 2.2 5.37401 2.2 5.65001C2.2 5.92601 2.394 6.26201 2.633 6.40001C2.872 6.53801 3.066 6.42601 3.066 6.15001Z" fill="#F8FAFC"/>
<path d="M4.3645 9.39901C4.6035 9.53701 4.7975 9.42551 4.7975 9.14901C4.7975 8.87301 4.6035 8.53701 4.3645 8.39901C4.1255 8.26101 3.9315 8.37301 3.9315 8.64901C3.9315 8.92501 4.1255 9.26101 4.3645 9.39901Z" fill="#F8FAFC"/>
<path d="M2.633 8.40001C2.872 8.53801 3.066 8.42601 3.066 8.15001C3.066 7.87401 2.872 7.53801 2.633 7.40001C2.394 7.26201 2.2 7.37401 2.2 7.65001C2.2 7.92601 2.394 8.26201 2.633 8.40001Z" fill="#F8FAFC"/>
</svg>
